<?xml version="1.0" encoding="UTF-8"?>
<svg xmlns="http://www.w3.org/2000/svg" viewBox="0 0 512 512">
  <defs>
    <style>
      .cls-1 {
        fill: #fb8fab;
      }

      .cls-2 {
        fill: #f2e0c7;
      }

      .cls-3 {
        fill: #e97391;
      }

      .cls-4 {
        fill: #47515a;
      }

      .cls-5 {
        fill: #f38aa6;
      }

      .cls-6 {
        fill: #fdfafb;
      }

      .cls-7 {
        fill: #f98daa;
      }

      .cls-8 {
        fill: #3e3f40;
      }

      .cls-9 {
        fill: #de6d8d;
      }

      .cls-10 {
        fill: #be6e83;
      }

      .cls-11 {
        fill: #3b3d3d;
      }

      .cls-12 {
        fill: #f78da9;
      }

      .cls-13 {
        fill: #5fbf99;
      }

      .cls-14 {
        fill: #449374;
      }

      .cls-15 {
        fill: #e77290;
      }

      .cls-16 {
        fill: #62bb97;
      }

      .cls-17 {
        fill: #f7e1c7;
      }

      .cls-18 {
        fill: #485059;
      }

      .cls-19 {
        fill: #fff;
        font-family: Jumble, Jumble;
        font-size: 50px;
      }

      .cls-20 {
        fill: #fdf1e0;
      }
    </style>
  </defs>
  <g id="Layer_1" data-name="Layer 1">
    <ellipse class="cls-13" cx="257.5" cy="434" rx="200.5" ry="42"/>
    <ellipse class="cls-14" cx="256" cy="424" rx="120" ry="24"/>
    <path d="m333.01,262.26c-2.19,2.15-4.24,4.49-6.63,6.4-1.96,1.57-4.21,2.95-6.55,3.87-2.99,1.17-4.76.17-6.36-2.86-1.71-3.03-1.27-5.08,1.56-7.83,3.15-3.07,6.27-6.18,9.38-9.28.46-.47.82-1.03,1.22-1.55-6.58-4.76-15.51-3.98-21.15,1.77-.66.67-1.56,1.32-2.44,1.51-9.09,1.93-18.19,3.76-27.29,5.61-.56.11-1.15.05-1.73.07-.11.11-.21.22-.32.32-.05-.08-.11-.16-.16-.24.15-.04.3-.07.45-.11,2.66-3.9,5.49-7.69,7.95-11.71,10.44-16.99,14.64-35.54,13.51-55.36-.14-2.55-.47-5.1-.71-7.64-1.94-6.74-3.89-13.48-5.83-20.22-.12-.36-.24-.73-.36-1.1h.01c-.34-.55-.71-1.08-1.04-1.64-3.09-5.41-5.85-11.06-9.39-16.15-2.4-3.44-3.59-6.7-3.77-10.93-.46-10.37-1.52-20.73-2.52-31.07-.59-6.12-1.41-12.22-2.35-18.29-.65-4.17-3.71-6.76-7.89-6.37-2.55.24-5.25,1.08-7.47,2.36-12.55,7.25-24.95,14.75-37.46,22.05-1,.59-2.56.79-3.67.49-14.09-3.75-28.37-5.25-42.96-4.55-15.12.72-29.62,3.99-43.72,9.37-1.21.46-2.98.38-4.16-.16-8.61-3.99-17.1-8.26-25.72-12.23-6.11-2.82-12.28-5.6-18.61-7.85-5.82-2.08-10.29.83-11.35,6.87-.44,2.51-.47,5.1-.64,7.66-.96,14.81-.47,29.59.9,44.36.26,2.8.88,5.56-.59,8.49-8.67,17.31-12.26,35.53-9.81,54.91,2.55,20.07,10.89,37.31,25.01,51.61,12.38,12.53,27.32,20.88,44.45,25.17,3.13.79,6.3,1.42,9.77,2.19-3.99,10-1.24,19.48,1.97,28.97-.71.31-1.23.55-1.76.77-8.05,3.25-14.82,8.23-20.14,15.11-14.71,19-9.64,45.63,10.94,58.08,6.05,3.66,12.67,5.35,19.5,6.54,4.83-.15,9.66-.3,15.02-.46.42,3.12.95,6.94,1.47,10.77.44,2.35.81,4.72,1.35,7.05,1.95,8.38,10.42,13.67,18.64,11.7,8.6-2.06,14.1-10.6,12.27-18.92-.41-1.91-.51-3.88-.76-5.83-.33-2.64-.67-5.28-1.01-7.92-.55-4.1-1.1-8.21-1.66-12.31-.56-4.1-1.14-8.2-1.71-12.27,3.58-1.15,4.09-.87,4.73,2.56,1.35,7.16,2.68,14.33,4.01,21.49.5,2.65.99,5.3,1.49,7.94.7,3.42,1.38,6.84,2.12,10.25,1.45,6.72,7.73,12.32,13.67,12.78,8.39.65,15.35-4.95,17.03-11.39,1.13-4.3-.02-8.45-.49-12.66-.06-.49-.12-.98-.19-1.47-.35-2.16-.71-4.32-1.07-6.47-.12-.31-.3-.61-.36-.93-2.01-10.95-3.97-21.9-6.03-32.84-.29-1.54.33-2.25,1.48-3.01,3.66-2.41,5.51-5.7,5.48-10.25-.11-15.83-.03-31.65-.05-47.48,0-1.51.01-2.66,2-3.03,10.13-1.87,20.23-3.92,30.35-5.83,5.06-.96,10.14-1.74,15.22-2.6,2.12-.37,4.25-.73,6.37-1.1,1.52-.32,3.04-.63,4.56-.95.13-.06.27-.09.41-.07,1.88-.34,3.75-.68,5.63-1.03.32-.08.64-.17.96-.26,1.8-.34,3.6-.68,5.4-1.02,1.79-.32,3.57-.71,5.38-.91.76-.09,1.7.02,2.32.42,9.25,5.96,21.72-.01,24.38-11.6.75-3.28.93-6.57-.48-9.76Zm-177.17,123.29c-2.15.16-4.28.45-5.92.64-11.22-.41-20.61-3.6-26.76-12.93-7.36-11.17-6.07-23.34,2.59-33.09,3.23-3.64,7.73-6.22,11.88-8.93,4.32-2.8,6-.85,6.37,3.96.45,5.72.32,11.49.45,17.23.03,1.08.07,2.16.18,3.24.64,5.74,3.9,9.34,9.19,11.37.75.29,1.59,1.27,1.71,2.04.77,4.76,1.33,9.55,1.98,14.33.18,1.32-.22,2.03-1.67,2.14Zm17.37-36.17c-1.86,3.85-5.69,5.18-9.89,4.54-4.17-.64-6.82-3.28-8.41-7.22,2.88-1.32,5.73-2.41,8.37-3.89,2.66-1.49,5.1-3.35,7.82-5.17,3.11,3.45,4.11,7.62,2.11,11.74Zm85.4-94.05c-10.77,9.25-23.58,14.41-37.08,18.19-8.93,2.49-17.93,4.42-27.19,4.96-1.46.09-2.92.29-4.37.43-5.91.19-11.82.39-17.73.53-.77.02-1.55-.24-2.32-.37-11.75-.37-22.94-3.15-33.25-8.76-13.84-7.54-23.39-18.83-27.1-34.29-2.54-10.62-1.22-21.05,4.49-30.59,3.86-6.46,9.42-11.02,16.32-14.1,5.17-2.3,10.63-3.77,16.13-3.76,13.59,0,26.29,2.97,36.23,13.32,3.91,4.07,8.2,7.91,14.06,8.72,10.31,1.41,19.85.07,26.68-9.01,4.15-5.51,8.93-10.38,14.95-13.78,6.95-3.92,14.42-6,22.27-3.2,7.12,2.54,11.41,8.21,14.23,14.97,2.41,5.77,3.41,11.89,3.03,18.09-.98,15.57-7.52,28.5-19.35,38.65Z"/>
    <circle class="cls-1" cx="385" cy="147" r="88"/>
    <path class="cls-6" d="m402.34,87.66c-2.36.09-4.87.73-7.05.15-4.02-1.07-5.6-4.95-3.26-8.34,1.49-2.16,3.98-4.34,6.43-4.99,9.39-2.51,18.75-2.74,26.76,4.08,3.91,3.33,6.29,7.63,6.27,12.95,0,.9-.16,1.83-.44,2.69-1.09,3.44-4.11,5.72-7.19,5.54-2.92-.17-5.08-1.95-5.66-5.8-.73-4.83-4.8-8.21-10.58-8.06-1.78.05-3.55.77-5.33,1.18.01.2.03.4.04.6Z"/>
    <path class="cls-15" d="m289.01,286.49c.13-.07.26-.09.41-.07,1.88-.34,3.75-.69,5.63-1.03.32-.09.64-.17.96-.26.71.45,1.41.9,2.12,1.36-5.37,4.5-10.74,9-16.11,13.5,0-.83.02-1.67-.03-2.5-.17-2.92-2.24-4.12-4.6-2.39-5.25,3.86-8.71,9.11-9.3,15.6-1.01,11.06,7.54,20.3,17.69,22.08,12.03,2.11,23.89.7,34.92-4.95,4.71-2.41,9.21-5.25,13.81-7.89-1.62,1.58-3.2,3.21-4.89,4.73-1.07.96-2.08,1.79-.64,3.2-6.44,4.73-13.52,8.14-21.23,10.18-10.45,2.77-20.87,3.05-31.02-1.15-7.92-3.28-13.63-8.7-14.66-17.69-.78-6.8,1.02-13.18,4.93-18.66,2.77-3.88,6.4-7.13,9.66-10.66.44-.48.94-.91,1.42-1.36,2.13-.37,4.25-.73,6.38-1.1,1.52-.32,3.04-.63,4.56-.95Z"/>
    <path class="cls-9" d="m328.99,327.88c-1.44-1.4-.43-2.24.64-3.2,1.68-1.51,3.26-3.15,4.89-4.73.17-.16.34-.32.51-.48.66-.51,1.32-1.02,1.99-1.52,1.79-1.85,3.65-3.64,5.35-5.57,2.13-2.42,4.3-4.85,6.17-7.48,4.85-6.81,8.31-14.35,11.14-22.2,3.64-10.11,6.27-20.45,6.91-31.23.75-.17,1.49-.35,2.24-.52-1.61,14.38-5.22,28.23-11.05,41.48-4.6,10.45-10.46,20.1-19.02,27.82-3.06,2.76-6.49,5.1-9.75,7.64Z"/>
    <path class="cls-16" d="m411.51,408.08c-.77.01-1.58.17-2.31,0-2.92-.68-5.81-1.46-8.71-2.2,3.67.73,7.34,1.46,11.02,2.19Z"/>
    <path class="cls-10" d="m375.04,239.86c3.5,0,7-.01,10.49-.02-3.5,0-7,.01-10.49.02Z"/>
    <path class="cls-16" d="m417.77,409.91c-.9-.3-1.81-.59-2.71-.89.9.3,1.81.59,2.71.89Z"/>
    <path class="cls-16" d="m425.24,411.92c-1.07-.32-2.14-.65-3.21-.97,1.07.32,2.14.65,3.21.97Z"/>
    <path class="cls-10" d="m389.04,239.49c.67-.03,1.34-.06,2.01-.09-.67.03-1.34.06-2.01.09Z"/>
    <path class="cls-9" d="m368.91,249.93c.02-.65.04-1.3.06-1.95-.02.65-.04,1.3-.06,1.95Z"/>
    <path class="cls-16" d="m400.27,405.91c-.58-.16-1.16-.32-1.75-.47.58.16,1.16.32,1.75.47Z"/>
    <path class="cls-16" d="m419.76,410.41c-.58-.17-1.17-.34-1.75-.51.58.17,1.17.34,1.75.51Z"/>
    <path class="cls-16" d="m427.13,412.46c-.35-.14-.7-.28-1.06-.43.35.14.7.28,1.06.43Z"/>
    <path class="cls-16" d="m430.12,413.46c-.35-.14-.7-.29-1.05-.43.35.14.7.29,1.05.43Z"/>
    <path class="cls-16" d="m431.61,413.96c-.35-.14-.69-.29-1.04-.43.35.14.69.29,1.04.43Z"/>
    <path class="cls-16" d="m413.79,408.93c-.24-.13-.48-.27-.72-.4.24.13.48.27.72.4Z"/>
    <path class="cls-16" d="m421.74,410.93c-.22-.12-.44-.25-.67-.37.22.12.44.25.67.37Z"/>
    <path class="cls-16" d="m428.27,412.93c-.23-.14-.47-.27-.7-.4.23.14.47.27.7.4Z"/>
    <path class="cls-17" d="m274.93,198.59c-2.82-6.76-7.11-12.43-14.23-14.97-7.85-2.8-15.32-.72-22.27,3.2-6.02,3.4-10.8,8.27-14.95,13.78-6.83,9.08-16.37,10.42-26.68,9.01-5.86-.81-10.15-4.65-14.06-8.72-9.94-10.35-22.64-13.31-36.23-13.32-5.5-.01-10.96,1.46-16.13,3.76-6.9,3.08-12.46,7.64-16.32,14.1-5.71,9.54-7.03,19.97-4.49,30.59,3.71,15.46,13.26,26.75,27.1,34.29,10.31,5.61,21.5,8.39,33.25,8.76.52-.2,1.03-.57,1.55-.58,5.79-.04,11.58-.03,17.37,0,.38,0,.75.27,1.13.42,1.45-.14,2.91-.34,4.37-.43,9.26-.54,18.26-2.47,27.19-4.96,13.5-3.78,26.31-8.94,37.08-18.19,11.83-10.15,18.37-23.08,19.35-38.65.38-6.2-.62-12.32-3.03-18.09Zm-120.35,37.35c-5.49-.03-9.95-4.96-10.18-10.78-.26-6.2,5.68-10.92,10.39-10.76,6.27.21,10.92,4.61,10.68,10.84,0,6.23-4.59,10.73-10.89,10.7Zm92.74-8.02c-5,.26-10.34-5.64-10.32-11.04.03-5.86,5.1-11.04,10.79-11.01,5.87.04,10.21,4.74,10.21,11.06.52,5.9-4.46,10.67-10.68,10.99Z"/>
    <path class="cls-5" d="m325.63,251.01c3.62-4.37,7.25-8.74,10.87-13.1.65.35,1.29.71,1.95,1.04.97.48,2.59.76,2.77,1.44.27.99-.22,2.45-.87,3.36-1.24,1.75-2.77,3.31-4.29,4.84-5.37,5.44-10.72,10.91-16.24,16.2-1.53,1.47-3.63,2.32-5.42,3.53-.42.29-.63.89-.94,1.35-1.7-3.03-1.27-5.08,1.57-7.83,3.15-3.07,6.26-6.17,9.37-9.28.46-.46.82-1.03,1.23-1.54Z"/>
    <path class="cls-2" d="m171.1,337.64c3.11,3.45,4.11,7.61,2.11,11.74-1.86,3.84-5.69,5.18-9.89,4.54-4.17-.64-6.82-3.28-8.42-7.22,2.88-1.32,5.73-2.41,8.37-3.89,2.66-1.49,5.1-3.35,7.82-5.17Z"/>
    <path class="cls-20" d="m169.92,279.07c.52-.2,1.03-.57,1.55-.58,5.79-.04,11.58-.03,17.37,0,.38,0,.75.27,1.13.42-5.91.18-11.82.39-17.73.53-.77.02-1.54-.24-2.31-.37Z"/>
    <path class="cls-10" d="m301.41,284.11c-1.09.79-2.19,1.59-3.28,2.38-.71-.45-1.41-.9-2.12-1.36,1.8-.34,3.6-.68,5.4-1.02Z"/>
    <path class="cls-10" d="m295.05,285.39c-1.88.34-3.75.69-5.63,1.03,1.88-.34,3.75-.69,5.63-1.03Z"/>
    <path class="cls-10" d="m289.01,286.49c-1.52.32-3.04.63-4.56.95,1.52-.32,3.04-.63,4.56-.95Z"/>
    <path class="cls-18" d="m273.02,259.97l-.31.32c-.05-.08-.11-.16-.16-.25.15-.03.3-.07.45-.1,0,0,.03.03.03.03Z"/>
    <path class="cls-4" d="m287.55,163.91c.12.37.24.74.36,1.11-.12-.37-.24-.74-.36-1.11Z"/>
    <path class="cls-3" d="m329.13,184.73c1.9,2.46,7.18,8.92,16.04,14.78,8.45,5.6,18.06,9.19,28.69,10.93,15.75,2.57,31.12.83,45.96-5.02,9.28-3.66,17.57-8.9,25.1-15.5,14.7-12.88,23.44-29.05,27.29-48.05.03-.15.17-.28.26-.42,2.34,29.72-7.77,54.62-29.49,74.76-13.61,12.62-29.94,19.9-48.27,22.71-1.22.19-2.44.33-3.66.49-.67.03-1.34.06-2.01.09-1.17.12-2.33.23-3.5.35-3.5,0-7,.01-10.49.02-1.73,0-3.45,0-5.26,0-.29,2.91-.55,5.51-.81,8.12-.02.65-.04,1.3-.06,1.95-.04.34-.07.68-.11,1.02-.75.17-1.49.35-2.24.52-.45-4.78-2.28-5.89-6.54-4.03-.6.26-1.26.35-1.9.52.14-2.74.55-5.49.35-8.2-.32-4.26-4.5-2.09-6.6-3.54-1.24-.86-2.07.02-2.66,1.27-.92,1.95-1.85,3.94-3.05,5.72-4.32,6.39-8.77,12.7-13.16,19.05-2.19,2.15-4.24,4.49-6.63,6.4-1.96,1.57-4.21,2.95-6.55,3.87-2.99,1.18-4.77.17-6.37-2.86.31-.46.52-1.06.94-1.35,1.79-1.21,3.89-2.07,5.42-3.53,5.52-5.29,10.87-10.76,16.24-16.2,1.52-1.53,3.04-3.1,4.29-4.84.65-.91,1.14-2.38.87-3.36-.19-.68-1.81-.96-2.77-1.44-.66-.33-1.3-.69-1.95-1.04,1.16-2.04,2.33-4.08,3.47-6.08-.38-.3-.49-.43-.64-.5-.67-.34-1.34-.65-2.01-.99-18.46-9.33-32.65-22.93-41.76-41.63-.57-1.18-1.21-2.32-1.82-3.48-1.94-6.74-3.89-13.47-5.83-20.21-.12-.37-.24-.74-.36-1.11,0,0,.01,0,.01,0-.35-4.78-1.13-9.56-.98-14.32,1.02-33.76,15.35-60.06,44.39-77.85,9.69-5.93,20.31-9.68,31.48-11.57,5.12-.87,10.41-.77,15.62-1.11-5.3,2.34-12.47,6.07-20.06,11.94-5.72,4.42-9.5,8.37-12,11-4.23,4.45-12.2,12.96-19,26-3.74,7.17-8.4,16.11-10,29-.67,5.39-2.16,18.75,3.95,33.59,1.07,2.59,3.52,8.12,8.18,14.14Z"/>
    <path class="cls-7" d="m282.02,299.99c-3.27,3.6-6.19,7.39-7.2,12.32-.99,4.8.64,8.94,4.72,11.7,3.57,2.41,7.59,3.37,11.81,3.46,12.6.29,23.83-3.79,33.94-11.05,10.35-7.44,16.56-18.06,21.75-29.32,5.17-11.24,8.35-23.11,10.38-35.3.21-1.28.47-2.55.71-3.83.63-.17,1.3-.26,1.9-.52,4.26-1.86,6.08-.75,6.54,4.03-.64,10.78-3.27,21.11-6.9,31.23-2.82,7.85-6.28,15.39-11.14,22.2-1.87,2.63-4.03,5.05-6.17,7.48-1.7,1.93-3.56,3.72-5.35,5.57-.66.51-1.32,1.02-1.99,1.52-.17.16-.34.32-.51.48-4.6,2.64-9.1,5.47-13.81,7.89-11.04,5.66-22.89,7.07-34.92,4.95-10.16-1.78-18.7-11.02-17.69-22.08.59-6.49,4.05-11.74,9.3-15.6,2.36-1.74,4.43-.54,4.6,2.39.05.83.02,1.66.03,2.5Z"/>
    <path class="cls-15" d="m335.03,319.47c.66-.51,1.32-1.02,1.99-1.52-.66.51-1.32,1.02-1.99,1.52Z"/>
    <path class="cls-11" d="m258,216.93c.52,5.9-4.46,10.67-10.68,10.99-4.99.26-10.34-5.64-10.31-11.04.03-5.86,5.1-11.04,10.78-11.01,5.87.04,10.21,4.74,10.21,11.06Z"/>
    <path class="cls-8" d="m165.47,225.24c0,6.23-4.58,10.73-10.89,10.7-5.49-.03-9.94-4.96-10.18-10.78-.25-6.2,5.69-10.91,10.39-10.76,6.27.21,10.93,4.61,10.68,10.84Z"/>
    <text class="cls-19" transform="translate(348.12 157.28)"><tspan x="0" y="0">GHB</tspan></text>
  </g>
  <g id="Layer_2" data-name="Layer 2">
    <path class="cls-12" d="m210,302c3.59,3.59,3.59,9.41,0,13l-13,13-13-13c-3.59-3.59-3.59-9.41,0-13,3.59-3.59,9.41-3.59,13,0,3.59-3.59,9.41-3.59,13,0Z"/>
    <circle class="cls-11" cx="155" cy="225" r="12.5"/>
    <circle class="cls-8" cx="248.5" cy="217.5" r="12.5"/>
    <path d="m214.17,238.59c2.89,2.57-3.9,8.15-10.45,8.83-7.09.73-15.34-4.59-12.76-7.48s4.68,1.27,12.37.65c6.89-.55,7.95-4.57,10.84-2Z"/>
  </g>
</svg>